PathFileType	4	(X/Y/Z)	/Users/niels/Desktop/University/Third Semester/Perception and Action/Exam/Gymnastics Motion Tracking/Code for Gym Tracking/Analyzed Data/Webcam_Backflip/id3_5_trajectory_Sports2D/id3_5_trajectory_Sports2D_px_person00.trc
DataRate	CameraRate	NumFrames	NumMarkers	Units	OrigDataRate	OrigDataStartFrame	OrigNumFrames
29.8125	29.8125	8	22	m	29.8125	0	160
Frame#	Time	Hip			RHip			RKnee			RAnkle			RBigToe			RSmallToe			RHeel			LHip			LKnee			LAnkle			LBigToe			LSmallToe			LHeel			Neck			Head			Nose			RShoulder			RElbow			RWrist			LShoulder			LElbow			LWrist		
		X1	Y1	Z1	X2	Y2	Z2	X3	Y3	Z3	X4	Y4	Z4	X5	Y5	Z5	X6	Y6	Z6	X7	Y7	Z7	X8	Y8	Z8	X9	Y9	Z9	X10	Y10	Z10	X11	Y11	Z11	X12	Y12	Z12	X13	Y13	Z13	X14	Y14	Z14	X15	Y15	Z15	X16	Y16	Z16	X17	Y17	Z17	X18	Y18	Z18	X19	Y19	Z19	X20	Y20	Z20	X21	Y21	Z21	X22	Y22	Z22
0	0.0	0.995940107681289	-0.5654086221313481	0.0	0.9959287993608198	-0.562257264095505	0.0	0.9943312109263809	-0.671038867043595	0.0	0.9801608096109949	-0.7861135570349402	0.0	1.0132336049965	-0.8034737637844306	0.0	1.0022006200061029	-0.8081958279715455	0.0	0.9722911443246869	-0.8034693018867274	0.0	0.9990826529248326	-0.5606784399390197	0.0	0.9959008867001727	-0.6694557534494443	0.0	0.981732204232514	-0.7798095568836557	0.0	1.0195349316528257	-0.7971698860140705	0.0	1.011660801238625	-0.7940124245924605	0.0	0.9706984454192535	-0.7955928646997027	0.0	0.9927867122272142	-0.39987900390859193	0.0	0.9896512273622445	-0.31945840247592094	0.0	1.0180216971282123	-0.3588740865991978	0.0	0.9912180198995532	-0.4219364882831444	0.0	1.0636594282109035	-0.45815754283793164	0.0	1.1345050915957529	-0.44397114016935185	0.0	0.9833116922670234	-0.41878334315949745	0.0	1.039970028629486	-0.4613119564295722	0.0	1.118650067753502	-0.44711851360223254	0.0
1	0.03354297693920335	0.9947301321466505	-0.5649154488430081	0.0	0.9946908335814337	-0.5612826405444014	0.0	0.9983049505489748	-0.6707839468695925	0.0	0.9801921802297437	-0.7845647117088996	0.0	1.0134976739068398	-0.8022046700383914	0.0	1.0032494508480845	-0.806644562756437	0.0	0.9715374619026043	-0.8014275691787577	0.0	0.9979190339947734	-0.5600498497182803	0.0	0.9983411786315691	-0.6693900061806876	0.0	0.9823937888460333	-0.7783838772974673	0.0	1.019415831565534	-0.7964698242789604	0.0	1.0116163100686397	-0.7935288744618353	0.0	0.9707236209843014	-0.7944423589636818	0.0	0.9932322081739016	-0.39933524204770726	0.0	0.9912874659508876	-0.319243595099688	0.0	1.0189268134365057	-0.3585388839085229	0.0	0.9917276430547427	-0.4212968936174353	0.0	1.0625003233544124	-0.45943853521002687	0.0	1.1344439951370304	-0.44911501497587586	0.0	0.9829952025284012	-0.41824359540728956	0.0	1.029190022935616	-0.46351388785675063	0.0	1.096097259840471	-0.4560017648217917	0.0
2	0.0670859538784067	0.9933960520187907	-0.5645580161269197	0.0	0.9933146347628828	-0.5605402821261029	0.0	1.002482516340743	-0.6707167753072457	0.0	0.9803604476689946	-0.783088902210245	0.0	1.0140423017447326	-0.800955259407734	0.0	1.0045093399406029	-0.8050523801320628	0.0	0.9710641566296975	-0.7994259409180371	0.0	0.9966751626441693	-0.5595478511481653	0.0	1.001072727897951	-0.6694016385053497	0.0	0.9830529390876469	-0.7770758453395956	0.0	1.0196500648490123	-0.7956617237324835	0.0	1.0119092493817845	-0.7929551907954205	0.0	0.9708494159757335	-0.7932122516086358	0.0	0.9936802524765668	-0.3990684821752635	0.0	0.9931700256244419	-0.319311184144105	0.0	1.0199086299038207	-0.35861582558353805	0.0	0.9923602956715094	-0.420967776272216	0.0	1.0612729346765803	-0.4614202812117055	0.0	1.1341936109180693	-0.45552426586168593	0.0	0.9824917771188769	-0.41793212994390655	0.0	1.0186145683155545	-0.4663246757861002	0.0	1.0717709744373085	-0.4663540490258937	0.0
3	0.10062893081761004	0.9918921164439746	-0.5645605839317647	0.0	0.9917618849451043	-0.5603493131579915	0.0	1.0068859958055365	-0.6710079600485692	0.0	0.9807030999920159	-0.7818803445604531	0.0	1.0149972495154747	-0.7998831600053554	0.0	1.0060884622875208	-0.8035746600201226	0.0	0.9709372765238956	-0.7976894137315763	0.0	0.9953272426554749	-0.5594233544495903	0.0	1.004214512919647	-0.669602664488925	0.0	0.9836761394714119	-0.776106643319297	0.0	1.0204713137022596	-0.7948627752936808	0.0	1.0127558761675308	-0.7924090852493405	0.0	0.9710767104357898	-0.792051440471592	0.0	0.9942115807522457	-0.39930673873571787	0.0	0.9954536628460386	-0.3199492087577418	0.0	1.0210577969945986	-0.3593655939320712	0.0	0.9932110525258496	-0.42122418748642665	0.0	1.0597515822595363	-0.46471741395436134	0.0	1.1333504276524424	-0.46428690189061633	0.0	0.981911952390382	-0.41812016384286016	0.0	1.0094737135595007	-0.47009871635810985	0.0	1.0471823171196648	-0.47860570689734394	0.0
4	0.1341719077568134	0.9902859532293087	-0.5651615912518254	0.0	0.9901225943459409	-0.5609940885990263	0.0	1.01131495730833	-0.671734131511535	0.0	0.9811532634574432	-0.7811917604508234	0.0	1.0162697766568929	-0.799234212279048	0.0	1.0078894100629483	-0.8025309625900702	0.0	0.9710011536280042	-0.7965524461284561	0.0	0.993932405385294	-0.5599787682809041	0.0	1.0076892737073297	-0.6700862138244584	0.0	0.9842034931840852	-0.7757067960378907	0.0	1.0219218535892094	-0.7943474255662897	0.0	1.0141700083039444	-0.7921572205758057	0.0	0.9713308464326063	-0.7912783614158679	0.0	0.994945783248857	-0.4001943269785293	0.0	0.9981487238919924	-0.3213914277202271	0.0	1.0224538187152383	-0.36087809196448584	0.0	0.9942720740412514	-0.4222498154180963	0.0	1.0576188519809302	-0.4697180626601392	0.0	1.131408533785041	-0.4760337047574343	0.0	0.981619860482093	-0.41904831790313457	0.0	1.003425962673409	-0.4748875332063952	0.0	1.026433203023722	-0.49179123870722435	0.0
5	0.16771488469601675	0.9887231717917287	-0.5665267309001081	0.0	0.9885863396670559	-0.562604017679206	0.0	1.0154110387637578	-0.6729230259420791	0.0	0.9816187833215826	-0.7812900604081855	0.0	1.017556444802347	-0.7993209426183574	0.0	1.0095575556985756	-0.802322352205582	0.0	0.9710611720747435	-0.7963241469907963	0.0	0.9925791859243659	-0.5614356887475215	0.0	1.0112617857732977	-0.6709534143140831	0.0	0.984590989611821	-0.7760563523528056	0.0	1.023800888352681	-0.7944117581580792	0.0	1.0159196363776375	-0.7924901706712315	0.0	0.9715574715220786	-0.7912220138099447	0.0	0.9959659058581616	-0.4018231159504975	0.0	1.001245154359101	-0.3237895764763681	0.0	1.0241722614045838	-0.36322712870381124	0.0	0.9954171524511198	-0.42413288387771275	0.0	1.0545328801892098	-0.476535137326857	0.0	1.1277995765355824	-0.4908692300369305	0.0	0.9820033067969834	-0.42088154831949454	0.0	1.001151278041173	-0.4806412615017922	0.0	1.0128391495089548	-0.5049669196922096	0.0
6	0.20125786163522008	0.9873490740494069	-0.5687363388926195	0.0	0.9873659403425067	-0.5651435987814852	0.0	1.0187813129294256	-0.6746476451713813	0.0	0.9820384633768258	-0.7824273422341622	0.0	1.0185269295566561	-0.8004857378106314	0.0	1.010658601576258	-0.8033131837535143	0.0	0.9710196121242893	-0.797219708067856	0.0	0.9913212080686824	-0.563849430306171	0.0	1.0145543344189332	-0.6723782336325268	0.0	0.9848270868884895	-0.7773058974544271	0.0	1.025715112983488	-0.7953197836614895	0.0	1.0176003340999926	-0.7936603789946629	0.0	0.9717440883405893	-0.7921305837038973	0.0	0.9972978330487496	-0.4042537321142024	0.0	1.004827917773358	-0.32718672633830975	0.0	1.026303678016048	-0.36654046352617947	0.0	0.996497188055946	-0.42685770099657716	0.0	1.0502022661028498	-0.48498921640486603	0.0	1.1219270451937837	-0.5083767997209542	0.0	0.9832901302076735	-0.4236828935110045	0.0	1.0017408621889778	-0.48735560933638916	0.0	1.007179389921358	-0.5185267310277489	0.0
7	0.23480083857442344	0.9862496296035081	-0.5717997414172543	0.0	0.9866278015135883	-0.568488761369284	0.0	1.0211077054004358	-0.6770335212261465	0.0	0.9823933321716527	-0.7847936259949237	0.0	1.0190981141236273	-0.8029860592513945	0.0	1.0110376829054972	-0.8057228410298485	0.0	0.9708960674676941	-0.7993899688739703	0.0	0.9901278347068261	-0.5671412718290758	0.0	1.0171083398202714	-0.6745857986511009	0.0	0.9848943441190331	-0.7796450794155895	0.0	1.0272311825550131	-0.7973347332929775	0.0	1.0188211479802016	-0.7959239540125205	0.0	0.971852701413445	-0.7942192001261115	0.0	0.9989672963837967	-0.40747010950034585	0.0	1.0090456381667545	-0.3315138548411467	0.0	1.028954657381085	-0.3708673678012906	0.0	0.997460565917707	-0.43029522668236175	0.0	1.0444359120494986	-0.4946050045773716	0.0	1.1131791550097958	-0.5276596215366326	0.0	0.9855109558559433	-0.4273669348888826	0.0	1.003431580843451	-0.4949933045277601	0.0	1.0083816364024647	-0.5332850279486295	0.0
